<svg width="14" height="14" viewBox="0 0 14 14" fill="none" xmlns="http://www.w3.org/2000/svg">
<path d="M12.0312 1.53125H1.96875C1.72676 1.53125 1.53125 1.72676 1.53125 1.96875V12.0312C1.53125 12.2732 1.72676 12.4688 1.96875 12.4688H12.0312C12.2732 12.4688 12.4688 12.2732 12.4688 12.0312V1.96875C12.4688 1.72676 12.2732 1.53125 12.0312 1.53125ZM11.4844 11.4844H2.51562V2.51562H11.4844V11.4844ZM4.64844 9.33789V10.3906C4.64844 10.4508 4.69766 10.5 4.75781 10.5H5.41406C5.47422 10.5 5.52344 10.4508 5.52344 10.3906V9.33789C5.38535 9.38301 5.23906 9.40625 5.08594 9.40625C4.93281 9.40625 4.78652 9.38164 4.64844 9.33789ZM5.52344 6.63086V3.60938C5.52344 3.54922 5.47422 3.5 5.41406 3.5H4.75781C4.69766 3.5 4.64844 3.54922 4.64844 3.60938V6.63086C4.78652 6.58574 4.93281 6.5625 5.08594 6.5625C5.23906 6.5625 5.38535 6.58711 5.52344 6.63086ZM4.64844 9.33789C4.78652 9.38301 4.93281 9.40625 5.08594 9.40625C5.23906 9.40625 5.38535 9.38164 5.52344 9.33789C6.09492 9.15332 6.50781 8.61738 6.50781 7.98438C6.50781 7.35137 6.09492 6.81543 5.52344 6.63086C5.38535 6.58574 5.23906 6.5625 5.08594 6.5625C4.93281 6.5625 4.78652 6.58711 4.64844 6.63086C4.07695 6.81543 3.66406 7.35137 3.66406 7.98438C3.66406 8.61738 4.07695 9.15332 4.64844 9.33789ZM4.6498 7.75605C4.65391 7.74785 4.65938 7.73965 4.66348 7.73145V7.73008L4.67988 7.70547C4.68125 7.70273 4.68262 7.70137 4.68398 7.69863C4.68809 7.6918 4.69355 7.68633 4.69766 7.67949C4.69902 7.67813 4.70039 7.67539 4.70176 7.67402C4.70859 7.66582 4.71406 7.65898 4.7209 7.65215L4.725 7.64805L4.74141 7.63164L4.74688 7.62617C4.75371 7.61934 4.76055 7.61387 4.76875 7.60703C4.77695 7.6002 4.78379 7.59473 4.79199 7.58926C4.79473 7.58789 4.79609 7.58652 4.79883 7.58516C4.80566 7.58105 4.81113 7.57559 4.81797 7.57148C4.81934 7.57012 4.82207 7.56875 4.82344 7.56738C4.83164 7.56191 4.83984 7.55781 4.84941 7.55234C4.85078 7.55098 4.85352 7.55098 4.85488 7.54961C4.86172 7.54551 4.86855 7.54277 4.87676 7.53867L4.88496 7.53457C4.89453 7.53047 4.90273 7.52637 4.9123 7.52363C4.92187 7.51953 4.93145 7.5168 4.94102 7.51406C4.94375 7.51269 4.94648 7.5127 4.94922 7.51133C4.95742 7.50859 4.96426 7.50723 4.97246 7.50586C4.9752 7.50586 4.97656 7.50449 4.9793 7.50449C4.98887 7.50176 4.9998 7.50039 5.00937 7.49902C5.01211 7.49902 5.01348 7.49902 5.01621 7.49766C5.02441 7.49629 5.03262 7.49629 5.04082 7.49492H5.04902C5.05996 7.49492 5.06953 7.49355 5.08047 7.49355C5.09141 7.49355 5.10098 7.49355 5.11191 7.49492H5.12012C5.12832 7.49492 5.13652 7.49629 5.14473 7.49766C5.14746 7.49766 5.14883 7.49766 5.15156 7.49902C5.16113 7.50039 5.17207 7.50176 5.18164 7.50449C5.18438 7.50449 5.18574 7.50586 5.18848 7.50586C5.19668 7.50723 5.20488 7.50996 5.21172 7.51133C5.21445 7.5127 5.21719 7.51269 5.21992 7.51406C5.22949 7.5168 5.23906 7.51953 5.24863 7.52363C5.2582 7.52637 5.26641 7.53047 5.27598 7.53457L5.28418 7.53867C5.29102 7.54141 5.29922 7.54551 5.30605 7.54961C5.30742 7.55098 5.31016 7.55098 5.31152 7.55234C5.31973 7.55645 5.3293 7.56191 5.3375 7.56738C5.33887 7.56875 5.3416 7.57012 5.34297 7.57148C5.3498 7.57559 5.35664 7.57969 5.36211 7.58516C5.36484 7.58652 5.36621 7.58789 5.36895 7.58926C5.37715 7.59473 5.38535 7.60156 5.39219 7.60703C5.39902 7.6125 5.40723 7.61934 5.41406 7.62617L5.41953 7.63164L5.43594 7.64805L5.44004 7.65215C5.44687 7.65898 5.45371 7.66719 5.45918 7.67402C5.46055 7.67539 5.46191 7.67813 5.46328 7.67949C5.46875 7.68496 5.47285 7.6918 5.47695 7.69863C5.47832 7.70137 5.47969 7.70273 5.48105 7.70547L5.49746 7.73008C5.49746 7.73008 5.49746 7.73145 5.49883 7.73145C5.54441 7.80794 5.5685 7.89533 5.56855 7.98438C5.56855 8.06641 5.54805 8.14434 5.5125 8.2127C5.5084 8.2209 5.50293 8.2291 5.49883 8.2373C5.49883 8.2373 5.49883 8.23867 5.49746 8.23867L5.48105 8.26328C5.47969 8.26602 5.47832 8.26738 5.47695 8.27012C5.47285 8.27695 5.46738 8.28242 5.46328 8.28926C5.46191 8.29062 5.46055 8.29336 5.45918 8.29473C5.45234 8.30293 5.44687 8.30977 5.44004 8.3166L5.43594 8.3207L5.41953 8.33711L5.41406 8.34258C5.40723 8.34941 5.40039 8.35488 5.39219 8.36172C5.38398 8.36855 5.37715 8.37402 5.36895 8.37949C5.36621 8.38086 5.36484 8.38223 5.36211 8.38359C5.35527 8.3877 5.3498 8.39316 5.34297 8.39727C5.3416 8.39863 5.33887 8.4 5.3375 8.40137C5.3293 8.40684 5.32109 8.41094 5.31152 8.41641C5.31016 8.41777 5.30742 8.41777 5.30605 8.41914C5.29922 8.42324 5.29238 8.42598 5.28418 8.43008L5.27598 8.43418C5.26641 8.43828 5.2582 8.44238 5.24863 8.44512C5.23906 8.44922 5.22949 8.45195 5.21992 8.45469C5.21719 8.45606 5.21445 8.45605 5.21172 8.45742C5.20352 8.46016 5.19668 8.46152 5.18848 8.46289C5.18574 8.46289 5.18438 8.46426 5.18164 8.46426C5.17207 8.46699 5.16113 8.46836 5.15156 8.46973C5.14883 8.46973 5.14746 8.46973 5.14473 8.47109C5.13652 8.47246 5.12832 8.47246 5.12012 8.47383H5.11191C5.10098 8.47383 5.09141 8.4752 5.08047 8.4752C5.06953 8.4752 5.05996 8.4752 5.04902 8.47383H5.04082C5.03262 8.47383 5.02441 8.47246 5.01621 8.47109C5.01348 8.47109 5.01211 8.47109 5.00937 8.46973C4.9998 8.46836 4.98887 8.46699 4.9793 8.46426C4.97656 8.46426 4.9752 8.46289 4.97246 8.46289C4.96426 8.46152 4.95605 8.45879 4.94922 8.45742C4.94648 8.45605 4.94375 8.45606 4.94102 8.45469C4.93145 8.45195 4.92187 8.44922 4.9123 8.44512C4.90273 8.44238 4.89453 8.43828 4.88496 8.43418L4.87676 8.43008C4.86992 8.42734 4.86172 8.42324 4.85488 8.41914C4.85352 8.41777 4.85078 8.41777 4.84941 8.41641C4.84121 8.4123 4.83164 8.40684 4.82344 8.40137C4.82207 8.4 4.81934 8.39863 4.81797 8.39727C4.81113 8.39316 4.8043 8.38906 4.79883 8.38359C4.79609 8.38223 4.79473 8.38086 4.79199 8.37949C4.78379 8.37402 4.77559 8.36719 4.76875 8.36172C4.76191 8.35625 4.75371 8.34941 4.74688 8.34258L4.74141 8.33711L4.725 8.3207L4.7209 8.3166C4.71406 8.30977 4.70723 8.30156 4.70176 8.29473C4.70039 8.29336 4.69902 8.29062 4.69766 8.28926C4.69219 8.28379 4.68809 8.27695 4.68398 8.27012C4.68262 8.26738 4.68125 8.26602 4.67988 8.26328L4.66348 8.23867V8.2373C4.65801 8.2291 4.65391 8.2209 4.6498 8.2127C4.61426 8.14434 4.59375 8.06641 4.59375 7.98438C4.59375 7.90234 4.61426 7.82441 4.6498 7.75605ZM8.47656 7.36914V10.3906C8.47656 10.4508 8.52578 10.5 8.58594 10.5H9.24219C9.30234 10.5 9.35156 10.4508 9.35156 10.3906V7.36914C9.21348 7.41426 9.06719 7.4375 8.91406 7.4375C8.76094 7.4375 8.61465 7.41289 8.47656 7.36914ZM9.35156 4.66211V3.60938C9.35156 3.54922 9.30234 3.5 9.24219 3.5H8.58594C8.52578 3.5 8.47656 3.54922 8.47656 3.60938V4.66211C8.61465 4.61699 8.76094 4.59375 8.91406 4.59375C9.06719 4.59375 9.21348 4.61836 9.35156 4.66211ZM8.47656 7.36914C8.61465 7.41426 8.76094 7.4375 8.91406 7.4375C9.06719 7.4375 9.21348 7.41289 9.35156 7.36914C9.92305 7.18457 10.3359 6.64863 10.3359 6.01562C10.3359 5.38262 9.92305 4.84668 9.35156 4.66211C9.21348 4.61699 9.06719 4.59375 8.91406 4.59375C8.76094 4.59375 8.61465 4.61836 8.47656 4.66211C7.90508 4.84668 7.49219 5.38262 7.49219 6.01562C7.49219 6.64863 7.90508 7.18457 8.47656 7.36914ZM8.47793 5.7873C8.48203 5.7791 8.4875 5.7709 8.4916 5.7627V5.76133L8.50801 5.73672C8.50937 5.73398 8.51074 5.73262 8.51211 5.72988C8.51621 5.72305 8.52168 5.71758 8.52578 5.71074C8.52715 5.70938 8.52852 5.70664 8.52988 5.70527C8.53672 5.69707 8.54219 5.69023 8.54902 5.6834L8.55312 5.6793L8.56953 5.66289L8.575 5.65742C8.58184 5.65059 8.58867 5.64512 8.59687 5.63828C8.60508 5.63145 8.61191 5.62598 8.62012 5.62051C8.62285 5.61914 8.62422 5.61777 8.62695 5.61641C8.63379 5.6123 8.63926 5.60684 8.64609 5.60273C8.64746 5.60137 8.6502 5.6 8.65156 5.59863C8.65977 5.59316 8.66797 5.58906 8.67754 5.58359C8.67891 5.58223 8.68164 5.58223 8.68301 5.58086C8.68984 5.57676 8.69668 5.57402 8.70488 5.56992L8.71309 5.56582C8.72266 5.56172 8.73086 5.55762 8.74043 5.55488C8.75 5.55078 8.75957 5.54805 8.76914 5.54531C8.77188 5.54395 8.77461 5.54395 8.77734 5.54258C8.78555 5.53984 8.79238 5.53848 8.80059 5.53711C8.80332 5.53711 8.80469 5.53574 8.80742 5.53574C8.81699 5.53301 8.82793 5.53164 8.8375 5.53027C8.84023 5.53027 8.8416 5.53027 8.84434 5.52891C8.85254 5.52754 8.86074 5.52754 8.86895 5.52617H8.87715C8.88809 5.52617 8.89766 5.5248 8.90859 5.5248C8.91953 5.5248 8.9291 5.5248 8.94004 5.52617H8.94824C8.95645 5.52617 8.96465 5.52754 8.97285 5.52891C8.97559 5.52891 8.97695 5.52891 8.97969 5.53027C8.98926 5.53164 9.0002 5.53301 9.00977 5.53574C9.0125 5.53574 9.01387 5.53711 9.0166 5.53711C9.0248 5.53848 9.03301 5.54121 9.03984 5.54258C9.04258 5.54395 9.04531 5.54395 9.04805 5.54531C9.05762 5.54805 9.06719 5.55078 9.07676 5.55488C9.08633 5.55762 9.09453 5.56172 9.1041 5.56582L9.1123 5.56992C9.11914 5.57266 9.12734 5.57676 9.13418 5.58086C9.13555 5.58223 9.13828 5.58223 9.13965 5.58359C9.14785 5.5877 9.15742 5.59316 9.16563 5.59863C9.16699 5.6 9.16973 5.60137 9.17109 5.60273C9.17793 5.60684 9.18477 5.61094 9.19023 5.61641C9.19297 5.61777 9.19434 5.61914 9.19707 5.62051C9.20527 5.62598 9.21348 5.63281 9.22031 5.63828C9.22715 5.64375 9.23535 5.65059 9.24219 5.65742L9.24766 5.66289L9.26406 5.6793L9.26816 5.6834C9.275 5.69023 9.28184 5.69844 9.2873 5.70527C9.28867 5.70664 9.29004 5.70938 9.29141 5.71074C9.29687 5.71621 9.30098 5.72305 9.30508 5.72988C9.30644 5.73262 9.30781 5.73398 9.30918 5.73672L9.32559 5.76133V5.7627C9.37117 5.83919 9.39526 5.92658 9.39531 6.01562C9.39531 6.09766 9.3748 6.17559 9.33926 6.24395C9.33516 6.25215 9.32969 6.26035 9.32559 6.26855V6.26992L9.30918 6.29453C9.30781 6.29727 9.30644 6.29863 9.30508 6.30137C9.30098 6.3082 9.29551 6.31367 9.29141 6.32051C9.29004 6.32187 9.28867 6.32461 9.2873 6.32598C9.28047 6.33418 9.275 6.34102 9.26816 6.34785L9.26406 6.35195L9.24766 6.36836L9.24219 6.37383C9.23535 6.38066 9.22852 6.38613 9.22031 6.39297C9.21211 6.3998 9.20527 6.40527 9.19707 6.41074C9.19434 6.41211 9.19297 6.41348 9.19023 6.41484C9.1834 6.41895 9.17793 6.42441 9.17109 6.42852C9.16973 6.42988 9.16699 6.43125 9.16563 6.43262C9.15742 6.43809 9.14922 6.44219 9.13965 6.44766C9.13828 6.44902 9.13555 6.44902 9.13418 6.45039C9.12734 6.45449 9.12051 6.45723 9.1123 6.46133L9.1041 6.46543C9.09453 6.46953 9.08633 6.47363 9.07676 6.47637C9.06719 6.48047 9.05762 6.4832 9.04805 6.48594C9.04531 6.4873 9.04258 6.4873 9.03984 6.48867C9.03164 6.49141 9.0248 6.49277 9.0166 6.49414C9.01387 6.49414 9.0125 6.49551 9.00977 6.49551C9.0002 6.49824 8.98926 6.49961 8.97969 6.50098C8.97695 6.50098 8.97559 6.50098 8.97285 6.50234C8.96465 6.50371 8.95645 6.50371 8.94824 6.50508H8.94004C8.9291 6.50508 8.91953 6.50645 8.90859 6.50645C8.89766 6.50645 8.88809 6.50645 8.87715 6.50508H8.86895C8.86074 6.50508 8.85254 6.50371 8.84434 6.50234C8.8416 6.50234 8.84023 6.50234 8.8375 6.50098C8.82793 6.49961 8.81699 6.49824 8.80742 6.49551C8.80469 6.49551 8.80332 6.49414 8.80059 6.49414C8.79238 6.49277 8.78418 6.49004 8.77734 6.48867C8.77461 6.4873 8.77188 6.4873 8.76914 6.48594C8.75957 6.4832 8.75 6.48047 8.74043 6.47637C8.73086 6.47363 8.72266 6.46953 8.71309 6.46543L8.70488 6.46133C8.69805 6.45859 8.68984 6.45449 8.68301 6.45039C8.68164 6.44902 8.67891 6.44902 8.67754 6.44766C8.66934 6.44355 8.65977 6.43809 8.65156 6.43262C8.6502 6.43125 8.64746 6.42988 8.64609 6.42852C8.63926 6.42441 8.63242 6.42031 8.62695 6.41484C8.62422 6.41348 8.62285 6.41211 8.62012 6.41074C8.61191 6.40527 8.60371 6.39844 8.59687 6.39297C8.59004 6.3875 8.58184 6.38066 8.575 6.37383L8.56953 6.36836L8.55312 6.35195L8.54902 6.34785C8.54219 6.34102 8.53535 6.33281 8.52988 6.32598C8.52852 6.32461 8.52715 6.32187 8.52578 6.32051C8.52031 6.31504 8.51621 6.3082 8.51211 6.30137C8.51074 6.29863 8.50937 6.29727 8.50801 6.29453L8.4916 6.26992V6.26855C8.48613 6.26035 8.48203 6.25215 8.47793 6.24395C8.44238 6.17559 8.42188 6.09766 8.42188 6.01562C8.42188 5.93359 8.44238 5.85566 8.47793 5.7873Z" fill="currentColor" fill-opacity="0.88"/>
</svg>
