<svg width="14" height="14" viewBox="0 0 14 14" fill="none" xmlns="http://www.w3.org/2000/svg">
<path d="M12.1406 10.8281H2.73438V2.29688C2.73438 2.23672 2.68516 2.1875 2.625 2.1875H1.85938C1.79922 2.1875 1.75 2.23672 1.75 2.29688V11.7031C1.75 11.7633 1.79922 11.8125 1.85938 11.8125H12.1406C12.2008 11.8125 12.25 11.7633 12.25 11.7031V10.9375C12.25 10.8773 12.2008 10.8281 12.1406 10.8281ZM3.9375 9.73438H4.70312C4.76328 9.73438 4.8125 9.68516 4.8125 9.625V7.65625C4.8125 7.59609 4.76328 7.54688 4.70312 7.54688H3.9375C3.87734 7.54688 3.82812 7.59609 3.82812 7.65625V9.625C3.82812 9.68516 3.87734 9.73438 3.9375 9.73438ZM6.01562 9.73438H6.78125C6.84141 9.73438 6.89062 9.68516 6.89062 9.625V5.25C6.89062 5.18984 6.84141 5.14062 6.78125 5.14062H6.01562C5.95547 5.14062 5.90625 5.18984 5.90625 5.25V9.625C5.90625 9.68516 5.95547 9.73438 6.01562 9.73438ZM8.09375 9.73438H8.85938C8.91953 9.73438 8.96875 9.68516 8.96875 9.625V6.31641C8.96875 6.25625 8.91953 6.20703 8.85938 6.20703H8.09375C8.03359 6.20703 7.98438 6.25625 7.98438 6.31641V9.625C7.98438 9.68516 8.03359 9.73438 8.09375 9.73438ZM10.1719 9.73438H10.9375C10.9977 9.73438 11.0469 9.68516 11.0469 9.625V4.15625C11.0469 4.09609 10.9977 4.04688 10.9375 4.04688H10.1719C10.1117 4.04688 10.0625 4.09609 10.0625 4.15625V9.625C10.0625 9.68516 10.1117 9.73438 10.1719 9.73438Z" fill="currentColor" fill-opacity="0.88"/>
</svg>
