<svg width="14" height="14" viewBox="0 0 14 14" fill="none" xmlns="http://www.w3.org/2000/svg">
<path d="M12.6875 3.0625H10.5V2.29688C10.5 2.23672 10.4508 2.1875 10.3906 2.1875H9.625C9.56484 2.1875 9.51562 2.23672 9.51562 2.29688V3.0625H7.49219V2.29688C7.49219 2.23672 7.44297 2.1875 7.38281 2.1875H6.61719C6.55703 2.1875 6.50781 2.23672 6.50781 2.29688V3.0625H4.48438V2.29688C4.48438 2.23672 4.43516 2.1875 4.375 2.1875H3.60938C3.54922 2.1875 3.5 2.23672 3.5 2.29688V3.0625H1.3125C1.07051 3.0625 0.875 3.25801 0.875 3.5V11.375C0.875 11.617 1.07051 11.8125 1.3125 11.8125H12.6875C12.9295 11.8125 13.125 11.617 13.125 11.375V3.5C13.125 3.25801 12.9295 3.0625 12.6875 3.0625ZM12.1406 10.8281H1.85938V4.04688H3.5V4.8125C3.5 4.87266 3.54922 4.92188 3.60938 4.92188H4.375C4.43516 4.92188 4.48438 4.87266 4.48438 4.8125V4.04688H6.50781V4.8125C6.50781 4.87266 6.55703 4.92188 6.61719 4.92188H7.38281C7.44297 4.92188 7.49219 4.87266 7.49219 4.8125V4.04688H9.51562V4.8125C9.51562 4.87266 9.56484 4.92188 9.625 4.92188H10.3906C10.4508 4.92188 10.5 4.87266 10.5 4.8125V4.04688H12.1406V10.8281ZM5.6875 6.78125H3.17188C3.11172 6.78125 3.0625 6.83047 3.0625 6.89062V7.54688C3.0625 7.60703 3.11172 7.65625 3.17188 7.65625H5.6875C5.74766 7.65625 5.79688 7.60703 5.79688 7.54688V6.89062C5.79688 6.83047 5.74766 6.78125 5.6875 6.78125ZM5.6875 8.64062H3.17188C3.11172 8.64062 3.0625 8.68984 3.0625 8.75V9.40625C3.0625 9.46641 3.11172 9.51562 3.17188 9.51562H5.6875C5.74766 9.51562 5.79688 9.46641 5.79688 9.40625V8.75C5.79688 8.68984 5.74766 8.64062 5.6875 8.64062ZM9.90117 6.21523L8.48477 8.17988L7.76289 7.18047C7.72187 7.12305 7.65625 7.09023 7.58652 7.09023H6.83594C6.74707 7.09023 6.69512 7.19141 6.74707 7.26387L8.30703 9.42676C8.32717 9.45471 8.35366 9.47747 8.38433 9.49317C8.41499 9.50887 8.44895 9.51706 8.4834 9.51706C8.51785 9.51706 8.5518 9.50887 8.58247 9.49317C8.61313 9.47747 8.63963 9.45471 8.65977 9.42676L10.9156 6.3C10.9676 6.22754 10.9156 6.12637 10.8268 6.12637H10.0762C10.0078 6.125 9.94219 6.15918 9.90117 6.21523Z" fill="currentColor" fill-opacity="0.88"/>
</svg>
