<svg width="14" height="14" viewBox="0 0 14 14" fill="none" xmlns="http://www.w3.org/2000/svg">
<path d="M9.40625 3.60938C9.40625 3.54922 9.35703 3.5 9.29688 3.5H4.04688C3.98672 3.5 3.9375 3.54922 3.9375 3.60938V4.26562C3.9375 4.32578 3.98672 4.375 4.04688 4.375H9.29688C9.35703 4.375 9.40625 4.32578 9.40625 4.26562V3.60938ZM9.29688 5.46875H4.04688C3.98672 5.46875 3.9375 5.51797 3.9375 5.57812V6.23438C3.9375 6.29453 3.98672 6.34375 4.04688 6.34375H9.29688C9.35703 6.34375 9.40625 6.29453 9.40625 6.23438V5.57812C9.40625 5.51797 9.35703 5.46875 9.29688 5.46875ZM6.5625 7.4375H4.04688C3.98672 7.4375 3.9375 7.48672 3.9375 7.54688V8.20312C3.9375 8.26328 3.98672 8.3125 4.04688 8.3125H6.5625C6.62266 8.3125 6.67188 8.26328 6.67188 8.20312V7.54688C6.67188 7.48672 6.62266 7.4375 6.5625 7.4375ZM5.90625 11.6484H2.84375V2.02344H10.5V6.72656C10.5 6.78672 10.5492 6.83594 10.6094 6.83594H11.375C11.4352 6.83594 11.4844 6.78672 11.4844 6.72656V1.47656C11.4844 1.23457 11.2889 1.03906 11.0469 1.03906H2.29688C2.05488 1.03906 1.85938 1.23457 1.85938 1.47656V12.1953C1.85938 12.4373 2.05488 12.6328 2.29688 12.6328H5.90625C5.96641 12.6328 6.01562 12.5836 6.01562 12.5234V11.7578C6.01562 11.6977 5.96641 11.6484 5.90625 11.6484ZM10.7844 10.6312C11.1809 10.2717 11.4297 9.75215 11.4297 9.17383C11.4297 8.08691 10.5479 7.20508 9.46094 7.20508C8.37402 7.20508 7.49219 8.08691 7.49219 9.17383C7.49219 9.75215 7.74102 10.2717 8.1375 10.6312C7.3582 11.0756 6.82227 11.8986 6.78125 12.8475C6.77852 12.909 6.8291 12.9609 6.89062 12.9609H7.54824C7.60566 12.9609 7.65352 12.9158 7.65762 12.857C7.71094 11.9109 8.4998 11.1562 9.46094 11.1562C10.4221 11.1562 11.2109 11.9109 11.2643 12.857C11.267 12.9145 11.3148 12.9609 11.3736 12.9609H12.0312C12.0941 12.9609 12.1434 12.909 12.1406 12.8475C12.101 11.8973 11.5637 11.0756 10.7844 10.6312ZM9.46094 8.08008C10.0652 8.08008 10.5547 8.56953 10.5547 9.17383C10.5547 9.77813 10.0652 10.2676 9.46094 10.2676C8.85664 10.2676 8.36719 9.77813 8.36719 9.17383C8.36719 8.56953 8.85664 8.08008 9.46094 8.08008Z" fill="currentColor" fill-opacity="0.88"/>
</svg>
