<svg width="14" height="14" viewBox="0 0 14 14" fill="none" xmlns="http://www.w3.org/2000/svg">
<g clip-path="url(#clip0_11602_76483)">
<path d="M11.6813 10.9498C11.684 10.9457 11.6881 10.9416 11.6908 10.9375C12.5863 9.87246 13.125 8.4998 13.125 7C13.125 5.5002 12.5863 4.12754 11.6922 3.0625C11.6895 3.0584 11.6854 3.05566 11.6826 3.05156C11.6676 3.03379 11.6539 3.01738 11.6389 3.00098C11.6334 2.99414 11.6279 2.98867 11.6225 2.98184L11.5664 2.91758L11.565 2.91621C11.5445 2.89297 11.5227 2.86973 11.5021 2.84648L11.5008 2.84512C11.457 2.79863 11.4133 2.75215 11.3682 2.70703L11.3668 2.70566L11.3012 2.64004L11.2971 2.63594C11.2766 2.61543 11.2561 2.59629 11.2355 2.57715C11.2287 2.57031 11.2219 2.56348 11.2137 2.55664C11.2 2.54297 11.1863 2.53066 11.1727 2.51836C11.1686 2.51426 11.1631 2.51016 11.159 2.50469C10.068 1.49297 8.60645 0.875 7 0.875C5.39355 0.875 3.93203 1.49297 2.83965 2.50469C2.83555 2.50879 2.83008 2.51289 2.82598 2.51836C2.8123 2.53066 2.79863 2.54434 2.78496 2.55801C2.77812 2.56484 2.77129 2.57168 2.76309 2.57852C2.74258 2.59766 2.72207 2.61816 2.70156 2.6373L2.69746 2.64141L2.63184 2.70703L2.63047 2.7084C2.58535 2.75352 2.5416 2.8 2.49785 2.84648L2.49648 2.84785C2.47461 2.87109 2.4541 2.89434 2.43359 2.91758L2.43223 2.91895C2.41309 2.93945 2.39395 2.96133 2.37617 2.9832C2.3707 2.99004 2.36523 2.99551 2.35977 3.00234C2.34473 3.01875 2.33105 3.03652 2.31602 3.05293C2.31328 3.05703 2.30918 3.05977 2.30645 3.06387C1.41367 4.12754 0.875 5.5002 0.875 7C0.875 8.4998 1.41367 9.87246 2.30781 10.9375C2.31055 10.9416 2.31465 10.9457 2.31738 10.9498L2.35977 11.0004C2.36523 11.0072 2.3707 11.0127 2.37617 11.0195L2.43223 11.0838C2.43223 11.0852 2.43359 11.0852 2.43359 11.0865C2.4541 11.1098 2.47461 11.133 2.49648 11.1549L2.49785 11.1562C2.5416 11.2027 2.58535 11.2492 2.6291 11.2943L2.63047 11.2957C2.65234 11.3176 2.67285 11.3395 2.69473 11.36L2.69883 11.3641C2.74395 11.4092 2.79043 11.4529 2.83691 11.4953C3.93203 12.507 5.39355 13.125 7 13.125C8.60645 13.125 10.068 12.507 11.1604 11.4953C11.2069 11.4526 11.2525 11.4089 11.2971 11.3641L11.3012 11.36C11.323 11.3381 11.3449 11.3176 11.3654 11.2957L11.3668 11.2943C11.4119 11.2492 11.4557 11.2027 11.498 11.1562L11.4994 11.1549C11.5199 11.1316 11.5418 11.1098 11.5623 11.0865C11.5623 11.0852 11.5637 11.0852 11.5637 11.0838C11.5828 11.0633 11.602 11.0414 11.6197 11.0195C11.6252 11.0127 11.6307 11.0072 11.6361 11.0004C11.6516 10.9839 11.6666 10.967 11.6813 10.9498V10.9498ZM11.7373 9.0002C11.5486 9.4459 11.2998 9.85879 10.9963 10.2334C10.6545 9.93798 10.2807 9.68164 9.88203 9.46914C10.0406 8.82793 10.1391 8.12383 10.165 7.38281H12.127C12.0859 7.94199 11.9547 8.48477 11.7373 9.0002ZM12.127 6.61719H10.165C10.1391 5.87617 10.0406 5.17207 9.88203 4.53086C10.2826 4.31758 10.6559 4.06055 10.9963 3.7666C11.6561 4.57868 12.0507 5.57366 12.127 6.61719V6.61719ZM9.0002 2.2627C9.54297 2.49238 10.0365 2.80957 10.4713 3.20879C10.2187 3.42384 9.94687 3.61514 9.65918 3.78027C9.44453 3.16504 9.16973 2.63047 8.8498 2.20254C8.90039 2.22168 8.95098 2.24219 9.0002 2.2627ZM7.76152 11.8412C7.63574 11.9396 7.50996 12.0148 7.38281 12.0654V9.5293C7.9253 9.56714 8.45878 9.68795 8.96465 9.8875C8.85117 10.2238 8.71992 10.5342 8.56816 10.8145C8.33027 11.2574 8.05137 11.6115 7.76152 11.8412ZM8.56816 3.18555C8.71855 3.46719 8.85117 3.77754 8.96465 4.1125C8.45878 4.31205 7.9253 4.43286 7.38281 4.4707V1.93594C7.50859 1.98652 7.63574 2.06035 7.76152 2.16016C8.05137 2.38848 8.33027 2.74258 8.56816 3.18555V3.18555ZM7.38281 8.76231V7.38281H9.39941C9.37754 7.98711 9.30234 8.57363 9.17656 9.13008L9.17246 9.14648C8.5987 8.92891 7.99532 8.79938 7.38281 8.76231V8.76231ZM7.38281 6.61719V5.2377C8.00898 5.19941 8.61055 5.0668 9.17246 4.85352L9.17656 4.86992C9.30234 5.42637 9.37754 6.01152 9.39941 6.61719H7.38281ZM6.61719 7.38281V8.76231C5.99102 8.80059 5.38945 8.9332 4.82754 9.14648L4.82344 9.13008C4.69766 8.57363 4.62246 7.98848 4.60059 7.38281H6.61719ZM4.60059 6.61719C4.62246 6.01289 4.69766 5.42637 4.82344 4.86992L4.82754 4.85352C5.38945 5.0668 5.98965 5.19941 6.61719 5.2377V6.61719H4.60059ZM6.61719 9.5293V12.0641C6.49141 12.0135 6.36426 11.9396 6.23848 11.8398C5.94863 11.6115 5.66836 11.2561 5.43047 10.8131C5.28008 10.5314 5.14746 10.2211 5.03398 9.88613C5.54258 9.68652 6.07168 9.56758 6.61719 9.5293ZM6.61719 4.4707C6.0747 4.43286 5.54122 4.31205 5.03535 4.1125C5.14883 3.77617 5.28008 3.46582 5.43184 3.18555C5.66973 2.74258 5.94863 2.38711 6.23984 2.15879C6.36562 2.06035 6.49141 1.98516 6.61855 1.93457V4.4707H6.61719ZM4.9998 2.2627C5.05039 2.24219 5.09961 2.22168 5.1502 2.20254C4.83027 2.63047 4.55547 3.16504 4.34082 3.78027C4.05371 3.61621 3.78164 3.4248 3.52871 3.20879C3.96348 2.80957 4.45703 2.49238 4.9998 2.2627V2.2627ZM2.2627 4.9998C2.45137 4.5541 2.7002 4.14121 3.00371 3.7666C3.34414 4.06055 3.71738 4.31758 4.11797 4.53086C3.95938 5.17207 3.86094 5.87617 3.83496 6.61719H1.87305C1.91406 6.05801 2.04531 5.51523 2.2627 4.9998ZM1.87305 7.38281H3.83496C3.86094 8.12383 3.95938 8.82793 4.11797 9.46914C3.71927 9.68164 3.34554 9.93798 3.00371 10.2334C2.34395 9.42132 1.94929 8.42634 1.87305 7.38281V7.38281ZM4.9998 11.7373C4.45703 11.5076 3.96348 11.1904 3.52871 10.7912C3.78164 10.5752 4.05371 10.3852 4.34082 10.2197C4.55547 10.835 4.83027 11.3695 5.1502 11.7975C5.09961 11.7783 5.04902 11.7578 4.9998 11.7373ZM9.0002 11.7373C8.94961 11.7578 8.90039 11.7783 8.8498 11.7975C9.16973 11.3695 9.44453 10.835 9.65918 10.2197C9.94629 10.3838 10.2184 10.5752 10.4713 10.7912C10.0389 11.1888 9.54128 11.5088 9.0002 11.7373V11.7373Z" fill="currentColor" fill-opacity="0.88"/>
</g>
<defs>
<clipPath id="clip0_11602_76483">
<rect width="14" height="14" fill="white"/>
</clipPath>
</defs>
</svg>
