<svg width="14" height="14" viewBox="0 0 14 14" fill="none" xmlns="http://www.w3.org/2000/svg">
<path d="M11.375 0.875H2.625C2.38301 0.875 2.1875 1.07051 2.1875 1.3125V12.6875C2.1875 12.9295 2.38301 13.125 2.625 13.125H11.375C11.617 13.125 11.8125 12.9295 11.8125 12.6875V1.3125C11.8125 1.07051 11.617 0.875 11.375 0.875ZM3.17188 1.85938H10.8281V4.70312H3.17188V1.85938ZM10.8281 8.42188H3.17188V5.57812H10.8281V8.42188ZM10.8281 12.1406H3.17188V9.29688H10.8281V12.1406ZM4.15625 3.28125C4.15625 3.42629 4.21387 3.56539 4.31643 3.66795C4.41898 3.77051 4.55808 3.82812 4.70312 3.82812C4.84817 3.82812 4.98727 3.77051 5.08982 3.66795C5.19238 3.56539 5.25 3.42629 5.25 3.28125C5.25 3.13621 5.19238 2.99711 5.08982 2.89455C4.98727 2.79199 4.84817 2.73438 4.70312 2.73438C4.55808 2.73438 4.41898 2.79199 4.31643 2.89455C4.21387 2.99711 4.15625 3.13621 4.15625 3.28125V3.28125ZM4.15625 7C4.15625 7.14504 4.21387 7.28414 4.31643 7.3867C4.41898 7.48926 4.55808 7.54688 4.70312 7.54688C4.84817 7.54688 4.98727 7.48926 5.08982 7.3867C5.19238 7.28414 5.25 7.14504 5.25 7C5.25 6.85496 5.19238 6.71586 5.08982 6.6133C4.98727 6.51074 4.84817 6.45312 4.70312 6.45312C4.55808 6.45312 4.41898 6.51074 4.31643 6.6133C4.21387 6.71586 4.15625 6.85496 4.15625 7V7ZM4.15625 10.7188C4.15625 10.8638 4.21387 11.0029 4.31643 11.1054C4.41898 11.208 4.55808 11.2656 4.70312 11.2656C4.84817 11.2656 4.98727 11.208 5.08982 11.1054C5.19238 11.0029 5.25 10.8638 5.25 10.7188C5.25 10.5737 5.19238 10.4346 5.08982 10.3321C4.98727 10.2295 4.84817 10.1719 4.70312 10.1719C4.55808 10.1719 4.41898 10.2295 4.31643 10.3321C4.21387 10.4346 4.15625 10.5737 4.15625 10.7188V10.7188Z" fill="currentColor" fill-opacity="0.88"/>
</svg>
