<svg width="14" height="14" viewBox="0 0 14 14" fill="none" xmlns="http://www.w3.org/2000/svg">
<path d="M12.0312 1.53125H1.96875C1.72676 1.53125 1.53125 1.72676 1.53125 1.96875V12.0312C1.53125 12.2732 1.72676 12.4688 1.96875 12.4688H12.0312C12.2732 12.4688 12.4688 12.2732 12.4688 12.0312V1.96875C12.4688 1.72676 12.2732 1.53125 12.0312 1.53125ZM11.4844 11.4844H2.51562V2.51562H11.4844V11.4844ZM6.72656 5.46875H9.24219C9.30234 5.46875 9.35156 5.41953 9.35156 5.35938V4.70312C9.35156 4.64297 9.30234 4.59375 9.24219 4.59375H6.72656C6.66641 4.59375 6.61719 4.64297 6.61719 4.70312V5.35938C6.61719 5.41953 6.66641 5.46875 6.72656 5.46875ZM6.72656 7.4375H9.24219C9.30234 7.4375 9.35156 7.38828 9.35156 7.32812V6.67188C9.35156 6.61172 9.30234 6.5625 9.24219 6.5625H6.72656C6.66641 6.5625 6.61719 6.61172 6.61719 6.67188V7.32812C6.61719 7.38828 6.66641 7.4375 6.72656 7.4375ZM6.72656 9.40625H9.24219C9.30234 9.40625 9.35156 9.35703 9.35156 9.29688V8.64062C9.35156 8.58047 9.30234 8.53125 9.24219 8.53125H6.72656C6.66641 8.53125 6.61719 8.58047 6.61719 8.64062V9.29688C6.61719 9.35703 6.66641 9.40625 6.72656 9.40625ZM4.64844 5.03125C4.64844 5.17629 4.70605 5.31539 4.80861 5.41795C4.91117 5.52051 5.05027 5.57812 5.19531 5.57812C5.34035 5.57812 5.47945 5.52051 5.58201 5.41795C5.68457 5.31539 5.74219 5.17629 5.74219 5.03125C5.74219 4.88621 5.68457 4.74711 5.58201 4.64455C5.47945 4.54199 5.34035 4.48438 5.19531 4.48438C5.05027 4.48438 4.91117 4.54199 4.80861 4.64455C4.70605 4.74711 4.64844 4.88621 4.64844 5.03125V5.03125ZM4.64844 7C4.64844 7.14504 4.70605 7.28414 4.80861 7.3867C4.91117 7.48926 5.05027 7.54688 5.19531 7.54688C5.34035 7.54688 5.47945 7.48926 5.58201 7.3867C5.68457 7.28414 5.74219 7.14504 5.74219 7C5.74219 6.85496 5.68457 6.71586 5.58201 6.6133C5.47945 6.51074 5.34035 6.45312 5.19531 6.45312C5.05027 6.45312 4.91117 6.51074 4.80861 6.6133C4.70605 6.71586 4.64844 6.85496 4.64844 7ZM4.64844 8.96875C4.64844 9.11379 4.70605 9.25289 4.80861 9.35545C4.91117 9.45801 5.05027 9.51562 5.19531 9.51562C5.34035 9.51562 5.47945 9.45801 5.58201 9.35545C5.68457 9.25289 5.74219 9.11379 5.74219 8.96875C5.74219 8.82371 5.68457 8.68461 5.58201 8.58205C5.47945 8.47949 5.34035 8.42188 5.19531 8.42188C5.05027 8.42188 4.91117 8.47949 4.80861 8.58205C4.70605 8.68461 4.64844 8.82371 4.64844 8.96875V8.96875Z" fill="currentColor" fill-opacity="0.88"/>
</svg>
