<svg width="14" height="14" viewBox="0 0 14 14" fill="none" xmlns="http://www.w3.org/2000/svg">
<path d="M12.0312 4.16992H8.53125V2.625C8.53125 2.38301 8.33574 2.1875 8.09375 2.1875H2.51562V1.64062C2.51562 1.58047 2.46641 1.53125 2.40625 1.53125H1.64062C1.58047 1.53125 1.53125 1.58047 1.53125 1.64062V12.3594C1.53125 12.4195 1.58047 12.4688 1.64062 12.4688H2.40625C2.46641 12.4688 2.51562 12.4195 2.51562 12.3594V8.75H5.90625V10.2949C5.90625 10.5369 6.10176 10.7324 6.34375 10.7324H12.0312C12.2732 10.7324 12.4688 10.5369 12.4688 10.2949V4.60742C12.4688 4.36543 12.2732 4.16992 12.0312 4.16992ZM2.51562 7.76562V3.17188H7.54688V7.76562H2.51562ZM11.4844 9.74805H6.89062V8.75H8.42188C8.48203 8.75 8.53125 8.70078 8.53125 8.64062V5.1543H11.4844V9.74805Z" fill="currentColor" fill-opacity="0.88"/>
</svg>
