<svg width="14" height="14" viewBox="0 0 14 14" fill="none" xmlns="http://www.w3.org/2000/svg">
<path d="M11.684 3.9457L8.7418 1.00352C8.65977 0.921484 8.54902 0.875 8.43281 0.875H2.625C2.38301 0.875 2.1875 1.07051 2.1875 1.3125V12.6875C2.1875 12.9295 2.38301 13.125 2.625 13.125H11.375C11.617 13.125 11.8125 12.9295 11.8125 12.6875V4.25605C11.8125 4.13984 11.766 4.02773 11.684 3.9457ZM10.8035 4.45703H8.23047V1.88398L10.8035 4.45703ZM10.8281 12.1406H3.17188V1.85938H7.30078V4.8125C7.30078 4.96479 7.36128 5.11085 7.46897 5.21853C7.57665 5.32622 7.72271 5.38672 7.875 5.38672H10.8281V12.1406ZM6.89062 8.44922H4.375C4.31484 8.44922 4.26562 8.49844 4.26562 8.55859V9.21484C4.26562 9.275 4.31484 9.32422 4.375 9.32422H6.89062C6.95078 9.32422 7 9.275 7 9.21484V8.55859C7 8.49844 6.95078 8.44922 6.89062 8.44922ZM4.26562 6.69922V7.35547C4.26562 7.41563 4.31484 7.46484 4.375 7.46484H9.625C9.68516 7.46484 9.73438 7.41563 9.73438 7.35547V6.69922C9.73438 6.63906 9.68516 6.58984 9.625 6.58984H4.375C4.31484 6.58984 4.26562 6.63906 4.26562 6.69922Z" fill="currentcolor" fill-opacity="0.88"/>
</svg>
