<svg width="14" height="14" viewBox="0 0 14 14" fill="none" xmlns="http://www.w3.org/2000/svg">
<path d="M12.6708 5.42979L7.25674 1.49228C7.18218 1.43765 7.09214 1.4082 6.99971 1.4082C6.90727 1.4082 6.81724 1.43765 6.74268 1.49228L1.32862 5.42979C1.25385 5.48414 1.19823 5.56079 1.16973 5.64872C1.14124 5.73666 1.14134 5.83136 1.17002 5.91924L3.23858 12.2903C3.26713 12.3781 3.32271 12.4546 3.39736 12.5089C3.47201 12.5631 3.56191 12.5924 3.6542 12.5925H10.3466C10.5366 12.5925 10.7034 12.4708 10.7622 12.2903L12.8308 5.91924C12.8882 5.73877 12.8239 5.54189 12.6708 5.42979V5.42979ZM11.4649 5.70186L10.1183 6.13936L7.38389 4.16103V2.73369L11.4649 5.70186ZM6.3708 7.75537L5.15264 9.42744L4.39795 7.11416L6.3708 7.75537ZM4.78076 6.43193L6.6169 5.10439V7.02939L4.78076 6.43193ZM6.99971 8.19287L8.2835 9.95518H5.71592L6.99971 8.19287ZM7.38389 5.10439L9.21865 6.43193L7.38389 7.02803V5.10439V5.10439ZM7.62862 7.75537L9.60147 7.11416L8.84678 9.42744L7.62862 7.75537ZM6.6169 2.73369V4.16103L3.88115 6.13936L2.53447 5.70186L6.6169 2.73369V2.73369ZM2.31436 6.4374L3.49697 6.82158L4.59619 10.1903L3.86065 11.2007L2.31436 6.4374V6.4374ZM4.47178 11.6628L5.15947 10.7194H8.84131L9.52901 11.6628H4.47178ZM10.1388 11.2007L9.40322 10.1903L10.5024 6.82158L11.6851 6.4374L10.1388 11.2007Z" fill="currentColor" fill-opacity="0.88"/>
</svg>
