<svg width="14" height="14" viewBox="0 0 14 14" fill="none" xmlns="http://www.w3.org/2000/svg">
<path d="M3.43437 5.29102H4.375V6.23164C4.375 6.25625 4.39961 6.27539 4.42969 6.27539H5.08594C5.11602 6.27539 5.14062 6.25625 5.14062 6.23027V5.29102H6.08125C6.10586 5.29102 6.125 5.26641 6.125 5.23633V4.58008C6.125 4.55 6.10586 4.52539 6.07988 4.52539H5.14062V3.58477C5.14062 3.56016 5.11602 3.54102 5.08594 3.54102H4.42969C4.39961 3.54102 4.375 3.56016 4.375 3.58477V4.52539H3.43437C3.40977 4.52539 3.39062 4.55 3.39062 4.58008V5.23633C3.39062 5.26641 3.40977 5.29102 3.43437 5.29102ZM7.91875 5.29102H10.5656C10.5902 5.29102 10.6094 5.26641 10.6094 5.23633V4.58008C10.6094 4.55 10.5902 4.52539 10.5643 4.52539H7.91875C7.89414 4.52539 7.875 4.55 7.875 4.58008V5.23633C7.875 5.26641 7.89414 5.29102 7.91875 5.29102ZM7.91875 8.91406H10.5656C10.5902 8.91406 10.6094 8.88945 10.6094 8.85938V8.20312C10.6094 8.17305 10.5902 8.14844 10.5643 8.14844H7.91875C7.89414 8.14844 7.875 8.17305 7.875 8.20312V8.85938C7.875 8.88945 7.89414 8.91406 7.91875 8.91406ZM7.91875 10.3359H10.5656C10.5902 10.3359 10.6094 10.3113 10.6094 10.2812V9.625C10.6094 9.59492 10.5902 9.57031 10.5643 9.57031H7.91875C7.89414 9.57031 7.875 9.59492 7.875 9.625V10.2812C7.875 10.3113 7.89414 10.3359 7.91875 10.3359ZM5.24316 9.22852L6.07988 8.20449C6.13867 8.1334 6.08945 8.02539 5.99922 8.02539H5.30469C5.27324 8.02539 5.24316 8.03906 5.22402 8.06504L4.75918 8.63379L4.29434 8.06504C4.28456 8.05299 4.27228 8.04321 4.25835 8.03636C4.24443 8.02952 4.22918 8.02578 4.21367 8.02539H3.51777C3.42754 8.02539 3.37832 8.1334 3.43711 8.20449L4.27383 9.22852L3.4166 10.2785C3.35645 10.3496 3.40566 10.4576 3.4959 10.4576H4.19043C4.22187 10.4576 4.25195 10.4439 4.27109 10.418L4.75645 9.82324L5.2418 10.418C5.2623 10.4426 5.29238 10.4576 5.32246 10.4576H6.01699C6.10723 10.4576 6.15645 10.3496 6.09766 10.2785L5.24316 9.22852V9.22852ZM12.0312 1.53125H1.96875C1.72676 1.53125 1.53125 1.72676 1.53125 1.96875V12.0312C1.53125 12.2732 1.72676 12.4688 1.96875 12.4688H12.0312C12.2732 12.4688 12.4688 12.2732 12.4688 12.0312V1.96875C12.4688 1.72676 12.2732 1.53125 12.0312 1.53125ZM11.5391 11.5391H2.46094V2.46094H11.5391V11.5391Z"  fill-opacity="0.88"/>
</svg>
