<svg width="14" height="14" viewBox="0 0 14 14" fill="none" xmlns="http://www.w3.org/2000/svg">
<path d="M8.7582 5.87617H12.2732C12.3813 5.87617 12.4688 5.78867 12.4688 5.68066V2.16426C12.4688 2.05625 12.3813 1.96875 12.2732 1.96875H8.7582C8.65019 1.96875 8.5627 2.05625 8.5627 2.16426V3.43437H6.70742C6.6541 3.43437 6.61035 3.47812 6.61035 3.53145V6.55977H5.43867V5.24043C5.43867 5.13242 5.35117 5.04492 5.24316 5.04492H1.72676C1.61875 5.04492 1.53125 5.13242 1.53125 5.24043V8.75684C1.53125 8.86484 1.61875 8.95234 1.72676 8.95234H5.2418C5.3498 8.95234 5.4373 8.86484 5.4373 8.75684V7.4375H6.60898V10.4658C6.60898 10.5191 6.65273 10.5629 6.70605 10.5629H8.56133V11.833C8.56133 11.941 8.64883 12.0285 8.75684 12.0285H12.2719C12.3799 12.0285 12.4674 11.941 12.4674 11.833V8.31934C12.4674 8.21133 12.3799 8.12383 12.2719 8.12383H8.7582C8.65019 8.12383 8.5627 8.21133 8.5627 8.31934V9.68652H7.48809V4.31348H8.5627V5.68066C8.5627 5.78867 8.65019 5.87617 8.7582 5.87617ZM9.48965 2.89707H11.5404V4.94922H9.48965V2.89707ZM4.51035 8.02539H2.45957V5.97461H4.51035V8.02539ZM9.48965 9.05215H11.5404V11.1043H9.48965V9.05215Z" fill="currentColor" fill-opacity="0.88"/>
</svg>